# xmcd
#
# Track frame offsets:
#	150
#	25220
#	51350
#	70753
#	90648
#	114228
#	140370
#	164763
#	185748
#	204903
#
# Disc length: 2912 seconds
#
# Revision: 1
# Processed by: cddbd v1.5.1PL0 Copyright (c) Steve Scherf et al.
# Submitted via: CDex 1.50Beta5
#
DISCID=8a0b5e0a
DTITLE=原田知世 - Tears of Joy
DYEAR=1900
DGENRE=
TTITLE0=Silvy
TTITLE1=ひとときの永遠
TTITLE2=STEADY BOYS
TTITLE3=二人の陽炎
TTITLE4=ため息の日曜日
TTITLE5=雨の降る夜に
TTITLE6=うたかたの輪舞曲
TTITLE7=バースデイには勇気をだして
TTITLE8=Terse of joy
TTITLE9=Shell Pink〜眠りの国へ〜
EXTD=
EXTT0=
EXTT1=
EXTT2=
EXTT3=
EXTT4=
EXTT5=
EXTT6=
EXTT7=
EXTT8=
EXTT9=
PLAYORDER=
